<?xml version="1.0" encoding="UTF-8"?>
<!DOCTYPE svg PUBLIC "-//W3C//DTD SVG 1.1//EN" "http://www.w3.org/Graphics/SVG/1.1/DTD/svg11.dtd">
<!-- Creator: CorelDRAW 2020 (64 Bit) -->
<svg xmlns="http://www.w3.org/2000/svg" xml:space="preserve" width="43.3492mm" height="43.3492mm" version="1.1" style="shape-rendering:geometricPrecision; text-rendering:geometricPrecision; image-rendering:optimizeQuality; fill-rule:evenodd; clip-rule:evenodd"
viewBox="0 0 4334.92 4334.92"
 xmlns:xlink="http://www.w3.org/1999/xlink"
 xmlns:xodm="http://www.corel.com/coreldraw/odm/2003">
 <defs>
  <style type="text/css">
   <![CDATA[
    .fil0 {fill:white}
    .fil1 {fill:url(#id0)}
   ]]>
  </style>
  <linearGradient id="id0" gradientUnits="userSpaceOnUse" x1="2122.28" y1="550.33" x2="2138.64" y2="3869.24">
   <stop offset="0" style="stop-opacity:1; stop-color:#2F4167"/>
   <stop offset="1" style="stop-opacity:1; stop-color:#0FAB96"/>
  </linearGradient>
 </defs>
 <g id="Camada_x0020_1">
  <metadata id="CorelCorpID_0Corel-Layer"/>
  <rect class="fil0" x="-0.01" y="-0.01" width="4334.93" height="4334.93" rx="4334.93" ry="4334.93"/>
  <g id="_2479022047744">
   <path class="fil1" d="M1597.41 2462.53l134.55 133.52c35.53,42.5 211.29,214.11 256.71,259 6.95,6.87 8.4,8.97 14.29,16.35 4.88,6.12 9.38,9.91 15.05,15.57 85.93,85.78 174.21,170.14 256.55,259.17 42.41,45.85 121.87,121.8 167.25,167.19l120.64 121.9c7.89,-2.11 14.62,-9.16 20.99,-14.74l60.7 -49.09 -68.93 -148.07c8.59,-12.82 37.52,-38.78 50.43,-51.7 17.63,-17.63 33.42,-33.41 51.05,-51.05l76.61 -76.58c5.85,-5.14 8.09,-5.7 14.08,-11.46 4.91,-4.73 7.88,-7.98 12.71,-12.8 15.01,-15.01 195.85,-193.3 203.6,-204.89l32.44 31.39c50.8,60.77 242.25,237.17 270.3,273.5 13.1,16.99 30.66,28.05 41.92,44.87 -7.04,13.32 -37.5,46.3 -47.91,56.76 -5.99,6.01 -6.43,7.83 -11.56,13.97 -25.05,29.96 -126.66,120.84 -152.06,141.54 -61,49.67 -120.91,90.22 -188.49,130.65l-68.84 38.37c-330.44,167.71 -723.84,218.51 -1094.69,112.54 -113.68,-32.47 -184.57,-61.17 -283.94,-111.76l-109.59 -61.46 -164.14 -119.24 -118.44 -108.78 -81.6 -92.02c-19.74,-22.58 -34.06,-45.5 -50.5,-64.4 10.88,-16.23 521.04,-519.74 599.33,-598.03 11.12,-11.13 30.05,-32.56 41.49,-40.22zm524.87 -1912.21l80.97 0c125.6,2.93 250.23,19.36 366.85,48.52 27.31,6.83 53.41,13.33 80.11,22.02 63.38,20.63 126.06,40.9 186.27,69.03l35.24 15.82c58.77,23.8 113.05,58.43 167.33,90.52 10.98,6.5 21.55,13 31.47,19.58l90.06 63.13c28.87,21.68 58.99,43.16 85.44,67.75l66.39 61.25c26.62,23.43 41.45,41.8 65.06,65.14l37.07 39.53c5.43,5.82 5.99,8.17 11.47,14.06 41.13,44.24 102.29,124.59 131.99,174.36 6.74,11.29 12.8,19.61 19.72,31.33 6.81,11.5 12.89,19.72 19.48,31.59l70.69 133.55c29.07,57.55 52.96,119.25 73.73,181.59 16.88,50.69 33.04,103.2 45.2,159.03 66.74,306.46 52.4,609.69 -46.48,906.2 -20.84,62.55 -45.67,124.57 -75.01,182.85 -3.06,6.09 -4.89,10.63 -8.11,17.41l-44.4 83.26c-13.4,22.66 -24.23,41.88 -37.9,64.21 -13.15,21.47 -26.78,40.25 -40.78,61.34l-42.75 59.38c-33.58,44.89 -102.48,125.36 -141.96,164.39 -43.38,42.87 -88.4,83.82 -135.61,122.26 -47.95,39.06 -96.85,75.6 -149.91,107.95l-63.22 38.89c-127.25,69.31 -146.59,77.47 -281.43,129.6 -106.62,41.22 -215.03,62.6 -329.29,79.2 -78.22,11.36 -168.47,14.19 -251.33,14.19 -206.66,0 -408.68,-46.03 -597.78,-122.16 -94.28,-37.95 -186.21,-84.98 -270.27,-140.78 -126.8,-84.19 -134.79,-98.62 -231.54,-179.49 -27.13,-22.67 -52.66,-52.56 -77.98,-77.75l-24.22 -26.84c-32.56,-32.1 -65.68,-75.76 -92.59,-111.66 -82.97,-110.73 -154.57,-231.29 -207.12,-359.65 -59.13,-144.38 -98.98,-289.38 -117.32,-446.88l-12.67 -191.65c-0.14,-19.77 2.76,-30.07 2.68,-51.1l2.53 -74.05c6.36,-127.6 43.07,-288.67 82.03,-405.6 32.77,-98.33 77.12,-194.3 126.45,-284.59 12.7,-23.21 24.52,-41.85 38.11,-64.03l73.29 -107.95c4.37,-5.8 6.15,-9.15 10.54,-15.01l22.49 -28.56c8.28,-10.05 14.41,-18.28 22.97,-28.09l71.54 -81.63c9.18,-9.08 16.41,-16.4 25.54,-25.53l134.31 -123.55c140.53,-114.44 320.04,-220.52 493.44,-277.56 13.56,-4.47 23.69,-9.19 37.63,-13.44 12.91,-3.94 26.56,-8.21 38.91,-12.14 135.81,-43.14 283.89,-65.77 432.67,-69.24zm-1255.04 2415.17l-23.81 -45.12c-3.73,-6.94 -5.99,-9.57 -9.4,-16.13 -8.47,-16.25 -26.46,-48.61 -30.62,-66.41 8.38,-12.49 236.05,-237.01 271.26,-272.54 9.7,-9.79 17.42,-14.71 26.84,-24.23l498.45 -497.22c13.57,9.08 52.66,50.04 66,66.76l799.48 806.37 520.17 -518.89c12.8,8.74 167.61,166.32 192.74,191.47 22.53,22.52 41.33,43.87 63.83,66.38 43.17,43.17 84.49,84.48 127.66,127.65 13.55,13.54 115.75,114.02 127.01,130.84l-33.98 60.48c-6.84,12.34 -32.76,51.31 -34.95,59.51 -10.81,-2.88 -41.8,-37.97 -51.7,-47.87l-174.89 -174.87c-9.79,-9.71 -14.71,-17.42 -24.22,-26.84l-125.12 -125.08c-31.61,-31.6 -11.03,-23.61 -106.59,-23.61 -7.97,0 -25.33,21.49 -31.27,27.44l-418.69 418.69c-8.59,8.59 -20.96,25.63 -32.56,28.73l-282.78 -283.99c-5.41,-5.84 -6.02,-8.26 -11.42,-14.1l-117.48 -117.41c-35.09,-35.09 -68.31,-68.31 -103.39,-103.4l-283.39 -285.93c-32.73,-32.74 -11.18,-24.9 -105.3,-24.9 -9.61,0 -163.1,159.26 -172.98,169.14l-345.92 343.37c-13.26,13.33 -162.17,164.46 -172.98,171.71zm-127.65 -288.51c-13.46,-28.05 -38.86,-140.61 -45.95,-171.04 22.29,-14.93 671.36,-667.15 710.35,-706.57 6.44,-6.51 8.25,-7.55 15.08,-13 26.75,-21.34 167.18,-171.59 185.99,-184.2 3.19,11.93 96.16,99.98 106.59,110.42l648.47 653.57c21.92,21.92 97.01,101.88 107.87,109.14 13.16,-8.82 264.33,-263.06 291.67,-290.4 6.11,-6.12 10.33,-10.67 16.55,-16.65 6.94,-6.67 11,-8.31 17.96,-15.22 24.18,-23.91 186.82,-184.33 194.63,-196l158.98 157.61c7.3,7.59 9.87,12.66 17.79,20.49 7.46,7.37 13.02,12.97 20.45,20.41l395.72 398.27c11.12,11.12 32.55,30.06 40.21,41.48 -5.78,24.79 -40.69,138.96 -53.61,163.39l-405.3 -406.57c-17.76,-17.75 -126.82,-134.66 -135.94,-134.66 -101.71,0 -67.49,-12.94 -138.51,58.07l-181.27 178.72c-17.25,17.27 -228.95,231.96 -241.88,240.63 -10.38,-15.5 -68.44,-68.01 -88.76,-89.97 -70.46,-76.18 -146.03,-148.65 -219.53,-222.14l-487.63 -492.74c-32.93,-32.94 -11.22,-24.89 -107.86,-24.89 -8.38,0 -96.66,92.84 -104.04,100.21l-613.99 611.45c-17.64,17.63 -33.42,33.4 -51.06,51.05 -16.67,16.68 -33.93,36.39 -52.98,49.14zm-71.47 -365.07c0,-21.12 -2.56,-32 -2.56,-53.62l0 -89.35c0,-21.7 2.65,-38.02 2.51,-56.21 -0.14,-16.49 -2.17,-14.71 6.88,-23.76l319.31 -318.93c21.04,-21.06 40.24,-40.22 61.27,-61.28 5.66,-5.68 9.46,-10.17 15.58,-15.07l472.05 -470c14.9,-14.91 47.32,-50.87 61.9,-60.63l203.64 202.28c5.74,6.21 6.62,9.11 12.69,15.41 78.49,81.54 163.1,163.14 243.86,243.76l269.35 271.89c10.51,10.42 16.28,18.95 26.79,29.38 17.24,17.08 98.05,100.43 109.14,107.84 12.55,-3.35 119.46,-115.6 130.85,-127 44.03,-44.02 86.17,-86.18 130.21,-130.2 17.77,-17.78 251.02,-248.01 259.77,-261.04 24.06,16.11 95.47,96.74 121.89,123.17 9.14,9.14 16.41,16.39 25.54,25.53l197.85 197.86c17.5,17.49 31.06,33.6 48.52,51.06l270.62 273.17c29.43,29.36 14.34,21.28 14.65,79.76 0.11,19.51 -1.77,33.09 -2.51,48.56l-7.68 91.88c-14.05,-3.75 -64.71,-63.62 -78.49,-77.25l-509.35 -511.84c-47.97,-47.42 -8.57,-38.95 -121.89,-38.95 -7.98,0 -25.32,21.49 -31.29,27.45l-89.35 89.35c-27.8,27.8 -345.63,348.89 -359.34,358.06l-462.73 -466.57c-18.07,-18.06 -34.26,-34.25 -52.33,-52.33 -35.1,-35.09 -68.31,-68.31 -103.4,-103.4l-154.46 -157.01c-9.13,-9.13 -16.39,-16.4 -25.53,-25.53 -32.94,-32.95 -11.22,-24.89 -107.87,-24.89 -7.79,0 -23.04,19.22 -28.71,24.89 -9.99,9.99 -18.11,18.09 -28.08,28.09l-432.79 430.12c-5.28,5.23 -8.71,8.81 -14,14.1l-279.55 279.56c-17.01,17 -102.02,104.34 -112.96,111.69zm45.94 -485.08c9.77,-41.9 24.1,-80.89 37.32,-120.96 28.83,-87.29 81.07,-192.31 128.77,-272.06 31.77,-53.11 48.7,-73.33 80.02,-119.1l128.54 -152.31c13.67,-13.51 26.8,-28.42 40.87,-40.82l42.09 -37.06c4.2,-3.73 5.95,-6.37 10.36,-10.06l123.3 -96.27c33.05,-22.87 63.4,-42.27 97.9,-62.92 68.41,-40.94 136.78,-73.91 216.06,-105.63 287.86,-115.14 628.89,-136.75 936.02,-53.04 63.57,17.32 131.83,38.34 190.89,64.41 120.89,53.38 161.83,75.05 274.27,149.54 63.98,42.38 93.58,73.39 143.41,111.88l146.98 149.17c6.63,8.22 12.48,15.91 19.47,23.93 68.45,78.48 169.5,238.26 210.28,338.62 20.86,51.36 44.15,101.09 59.43,155.02 11.45,40.35 49.09,164.9 49.99,205.32l-77.24 -75.96c-26.72,-26.73 -49.83,-52.39 -76.59,-79.13 -52.1,-52.12 -102.33,-102.36 -154.45,-154.47l-268.06 -270.62c-46.82,-46.81 -18.2,-37.65 -118.08,-37.65 -8.68,0 -112.87,109.04 -120.63,116.8l-361.89 358.06c-11.92,-7.98 -191.12,-190.03 -207.44,-206.14l-49.78 -52.35c-48.68,-48.7 -196.09,-191.54 -231.16,-233.49 -17.44,-20.86 -199.27,-199.49 -233.49,-233.71l-51.06 -53.63c-63.01,-63 -32.23,-50.41 -130.84,-50.41 -8.52,0 -100.41,96.59 -107.86,104.04 -36.06,36.05 -71.17,68.61 -107.23,104.66l-640.17 636.34z"/>
  </g>
 </g>
</svg>
